<svg xmlns="http://www.w3.org/2000/svg" width="64" height="64" viewBox="0 0 256 256" version="1.1">	<path d="M 34.022 99.745 C 34.043 172.864, 34.168 178.651, 35.772 180.608 C 36.723 181.768, 47.400 187.787, 59.500 193.985 C 71.600 200.183, 81.950 205.587, 82.500 205.994 C 83.050 206.401, 92.772 211.519, 104.104 217.367 C 118.112 224.596, 125.769 228, 128.023 228 C 130.341 228, 139.183 223.894, 157.419 214.349 C 171.764 206.841, 191.673 196.456, 201.661 191.270 C 215.921 183.868, 220.059 181.268, 220.923 179.171 C 221.699 177.288, 221.946 153.644, 221.762 99 L 221.500 21.500 127.750 21.245 L 34 20.990 34.022 99.745 M 44 50 L 44 68 56 68 L 68 68 68 50 L 68 32 56 32 L 44 32 44 50 M 75 53 L 75 74 59.500 74 L 44 74 44 124.250 L 44 174.500 54.250 179.744 C 66.192 185.853, 86.457 196.442, 103.500 205.477 C 110.100 208.976, 118.290 213.266, 121.700 215.009 L 127.900 218.179 147.200 208.087 C 157.815 202.537, 176.733 192.710, 189.241 186.248 L 211.982 174.500 211.741 124.500 L 211.500 74.500 196.250 74.224 L 181 73.948 181 52.974 L 181 32 128 32 L 75 32 75 53 M 187.794 50.001 L 187.500 68.002 199.750 68.001 L 212 68 212 50 L 212 32 200.044 32 L 188.087 32 187.794 50.001 M 88.515 52.656 C 89.932 64.795, 96.011 73.766, 106.220 78.781 C 128.754 89.850, 157.427 81.838, 164.868 62.394 C 166.041 59.329, 167 54.706, 167 52.120 L 167 47.418 157.250 48.755 C 139.734 51.158, 99.823 50.328, 89.666 47.350 C 87.984 46.857, 87.889 47.295, 88.515 52.656" stroke="none" fill="black" fill-rule="evenodd"></path></svg>