<svg xmlns="http://www.w3.org/2000/svg" width="1247" height="197" fill="none" viewBox="0 0 1247 197"><g clip-path="url(#clip0_18_122)"><path fill="#171952" d="M1149.05 192.035C1141.98 192.035 1134.3 191.417 1126 190.18C1117.69 188.943 1109.39 187.177 1101.09 184.88C1092.96 182.583 1085.54 179.845 1078.83 176.665L1092.34 140.095C1097.99 145.748 1104.09 150.518 1110.63 154.405C1117.34 158.292 1124.32 161.295 1131.56 163.415C1138.8 165.358 1146.05 166.683 1153.29 167.39C1158.41 165.093 1161.95 162.355 1163.89 159.175C1166.01 155.995 1167.07 152.903 1167.07 149.9C1167.07 144.953 1165.3 140.802 1161.77 137.445C1158.24 133.912 1153.56 130.732 1147.73 127.905C1142.07 124.902 1135.71 121.81 1128.65 118.63C1120.7 114.92 1112.83 110.68 1105.06 105.91C1097.46 100.963 1091.1 94.9567 1085.98 87.89C1080.86 80.8233 1078.3 72.0783 1078.3 61.655C1078.3 50.7017 1081.39 40.985 1087.57 32.505C1093.75 24.025 1102.41 17.4 1113.54 12.63C1124.67 7.68332 1137.74 5.20999 1152.76 5.20999C1159.47 5.20999 1166.54 5.73999 1173.96 6.8C1181.56 7.68333 1188.8 8.92 1195.69 10.51C1202.58 12.1 1208.59 13.955 1213.71 16.075L1198.87 55.825C1190.74 46.9917 1181.91 40.5433 1172.37 36.48C1162.83 32.24 1152.58 29.7667 1141.63 29.06C1137.57 31.3567 1134.56 34.2717 1132.62 37.805C1130.85 41.3383 1129.97 44.6067 1129.97 47.61C1129.97 52.0267 1132 55.9133 1136.07 59.27C1140.13 62.45 1145.34 65.5417 1151.7 68.545C1158.24 71.3717 1165.22 74.5517 1172.64 78.085C1180.59 81.795 1188.27 86.1233 1195.69 91.07C1203.29 95.84 1209.47 101.847 1214.24 109.09C1219.19 116.333 1221.66 125.52 1221.66 136.65C1221.66 148.487 1218.3 158.557 1211.59 166.86C1205.05 175.163 1196.31 181.435 1185.36 185.675C1174.4 189.915 1162.3 192.035 1149.05 192.035ZM1138.72 179.58L1079.09 176.665C1078.74 172.602 1078.74 167.213 1079.09 160.5C1079.44 153.787 1080.06 146.985 1080.95 140.095C1082.01 133.205 1083.15 127.552 1084.39 123.135H1108.24L1138.72 179.58ZM1179.53 68.545L1160.45 17.93L1213.71 16.075C1213.53 21.5517 1213.18 27.3817 1212.65 33.565C1212.12 39.5717 1211.41 45.5783 1210.53 51.585C1209.82 57.5917 1208.76 63.245 1207.35 68.545H1179.53Z"/><path fill="#171952" d="M1013.77 192.1C1006.37 192.3 999.365 190.8 992.765 187.6C986.365 184.6 981.065 180.4 976.865 175C972.865 169.6 970.865 163.7 970.865 157.3V52L992.165 3.09999H1019.17L1031.17 54.1V137.8C1031.17 142.2 1032.17 145.3 1034.17 147.1C1036.17 148.7 1039.07 149.5 1042.87 149.5C1046.27 149.5 1050.07 149.4 1054.27 149.2C1058.47 148.8 1062.27 148.5 1065.67 148.3L1066.87 164.2L1013.77 192.1ZM947.465 82L947.165 65.2C954.765 58.2 963.465 51.4 973.265 44.8C983.265 38.2 994.365 31.6 1006.57 25L1014.97 59.2L1013.77 81.7L947.465 82ZM1017.97 82.3V44.8H1069.87V61.9L1054.57 82.3H1017.97Z"/><path fill="#171952" d="M880.287 191.026C865.403 193.954 850.885 193.954 836.733 191.026C822.581 188.098 809.893 182.73 798.669 174.922C787.445 167.114 778.539 156.988 771.951 144.544C765.363 131.856 762.069 117.216 762.069 100.624C762.069 85.496 764.753 71.954 770.121 59.998C775.489 47.798 782.687 37.428 791.715 28.888C800.987 20.348 811.357 13.882 822.825 9.48999C834.537 4.854 846.493 2.536 858.693 2.536C867.721 2.536 877.115 4 886.875 6.928C896.879 9.61199 906.151 14.126 914.691 20.47C923.231 26.814 930.063 35.354 935.187 46.09C940.555 56.582 943.239 69.636 943.239 85.252L877.359 87.814C878.579 80.494 878.213 72.93 876.261 65.122C874.553 57.314 871.503 50.726 867.111 45.358C862.963 39.746 857.717 36.574 851.373 35.842C846.493 39.258 842.345 44.138 838.929 50.482C835.757 56.826 833.317 63.78 831.609 71.344C830.145 78.908 829.413 86.106 829.413 92.938C829.413 104.894 831.609 114.898 836.001 122.95C840.393 131.002 846.493 137.102 854.301 141.25C862.353 145.398 871.381 147.472 881.385 147.472C889.193 147.472 896.635 146.252 903.711 143.812C911.031 141.372 919.083 137.834 927.867 133.198L938.115 155.89L880.287 191.026ZM921.645 106.846L808.185 106.48L802.329 77.566L903.711 70.612L943.239 85.252L921.645 106.846Z"/><path fill="#171952" d="M575.838 187L574.194 178.232C578.03 175.127 582.231 172.295 586.798 169.738C591.365 166.998 596.205 164.441 601.32 162.066L601.594 187H575.838ZM636.392 187L637.214 165.354L675.026 171.93L674.752 187H636.392ZM746.266 187L746.814 163.71L782.434 171.93L782.16 187H746.266ZM651.188 29.45L650.914 4.516H676.67L678.314 13.284C674.478 16.2067 670.277 19.038 665.71 21.778C661.326 24.3353 656.485 26.8927 651.188 29.45ZM729.552 26.162L691.74 19.586L692.014 4.516H730.374L729.552 26.162ZM736.676 29.45L736.402 4.516H768.734L770.378 13.284C766.542 16.2067 761.245 19.1293 754.486 22.052C747.91 24.792 741.973 27.258 736.676 29.45ZM597.484 187V4.516H655.024V187H597.484ZM641.598 133.844L635.57 101.238L725.716 4.516H753.116L750.924 19.038L641.598 133.844ZM710.098 187L656.942 111.102L696.398 74.934L779.146 187H710.098ZM614.198 26.162L576.386 19.586L576.66 4.516H615.02L614.198 26.162Z"/><path fill="#171952" d="M300.835 194.32C284.487 194.32 268.871 190.538 253.987 182.974C239.347 175.41 227.391 164.43 218.119 150.034C208.847 135.394 204.211 117.826 204.211 97.33C204.211 76.834 208.725 59.632 217.753 45.724C226.781 31.572 238.493 20.836 252.889 13.516C267.285 6.19599 282.657 2.536 299.005 2.536C315.109 2.536 330.359 6.19599 344.755 13.516C359.395 20.836 371.229 31.694 380.257 46.09C389.285 60.242 393.799 77.81 393.799 98.794C393.799 119.046 389.407 136.37 380.623 150.766C372.083 164.918 360.737 175.776 346.585 183.34C332.677 190.66 317.427 194.32 300.835 194.32ZM301.933 158.452C304.373 158.452 306.935 157.964 309.619 156.988C312.059 154.792 314.011 151.132 315.475 146.008C316.939 140.884 318.037 134.662 318.769 127.342C319.501 119.778 319.867 111.726 319.867 103.186C319.867 91.718 319.135 81.47 317.671 72.442C316.207 63.17 313.767 55.85 310.351 50.482C306.935 44.87 302.421 42.064 296.809 42.064C295.101 42.064 293.271 42.308 291.319 42.796C289.611 43.04 288.147 43.65 286.927 44.626C284.243 48.774 282.047 55.728 280.339 65.488C278.875 75.248 278.143 86.594 278.143 99.526C278.143 110.506 278.875 120.51 280.339 129.538C282.047 138.322 284.609 145.398 288.025 150.766C291.441 155.89 296.077 158.452 301.933 158.452ZM516.432 191.392C502.28 194.32 488.372 194.32 474.708 191.392C461.044 188.464 448.722 182.974 437.742 174.922C426.762 166.87 417.978 156.5 411.39 143.812C404.802 130.88 401.508 115.996 401.508 99.16C401.508 79.64 405.778 62.682 414.318 48.286C422.858 33.89 434.326 22.666 448.722 14.614C463.118 6.562 479.222 2.536 497.034 2.536C508.99 2.536 520.458 4.61 531.438 8.75799C542.662 12.662 552.178 18.762 559.986 27.058C568.038 35.11 573.284 45.358 575.724 57.802L515.334 86.716C511.43 75.98 507.282 66.708 502.89 58.9C498.742 50.848 493.618 44.382 487.518 39.502C480.93 46.334 476.538 54.508 474.342 64.024C472.39 73.54 471.414 81.714 471.414 88.546C471.414 99.77 473.244 109.896 476.904 118.924C480.564 127.708 486.054 134.662 493.374 139.786C500.694 144.91 509.722 147.472 520.458 147.472C527.046 147.472 533.634 146.496 540.222 144.544C546.81 142.348 553.764 139.42 561.084 135.76L570.6 157.354L516.432 191.392Z"/><path fill="#171952" d="M94.1508 124.254L94.9728 91.374C97.7128 92.47 100.361 93.3833 102.919 94.114C105.476 94.662 107.851 95.1187 110.043 95.484C112.417 95.6667 114.518 95.758 116.345 95.758C122.555 95.758 127.579 94.2967 131.415 91.374C135.251 88.4513 138.082 84.6153 139.909 79.866C141.918 74.934 142.923 69.728 142.923 64.248C142.923 60.0467 142.466 55.5713 141.553 50.822C140.639 46.0727 139.269 41.6887 137.443 37.67C135.799 33.6513 133.607 30.7287 130.867 28.902L98.8088 33.286L23.4588 4.516L124.017 2.32399C140.822 2.14133 154.887 5.064 166.213 11.092C177.538 16.9373 186.123 24.7007 191.969 34.382C197.814 43.8807 200.737 54.0187 200.737 64.796C200.737 76.1213 197.54 86.2593 191.147 95.21C184.753 104.161 175.985 111.193 164.843 116.308C153.7 121.24 140.913 123.797 126.483 123.98L94.1508 124.254ZM24.5548 187L22.9108 178.232C26.7468 175.127 30.9481 172.295 35.5148 169.738C40.0815 166.998 44.9221 164.441 50.0368 162.066L50.3108 187H24.5548ZM96.8908 187L97.7128 165.354L135.525 171.93L135.251 187H96.8908ZM44.0088 187V4.516H101.549V187H44.0088ZM58.8048 25.614L23.1848 19.586L23.4588 4.516H59.3528L58.8048 25.614Z"/></g><defs><clipPath id="clip0_18_122"><rect width="1247" height="197" fill="#fff"/></clipPath></defs></svg>